<mxfile host="app.diagrams.net" modified="2023-05-25T20:28:33.964Z" agent="Mozilla/5.0 (Windows NT 10.0; Win64; x64; rv:109.0) Gecko/20100101 Firefox/113.0" etag="2IptyZ1dR48MvCt_NFm7" version="21.2.1" type="device">
  <diagram name="Страница 1" id="WEezIgop5tayn3Mz8GGZ">
    <mxGraphModel dx="1393" dy="1922" grid="1" gridSize="10" guides="1" tooltips="1" connect="1" arrows="1" fold="1" page="1" pageScale="1" pageWidth="827" pageHeight="1169" math="0" shadow="0">
      <root>
        <mxCell id="0" />
        <mxCell id="1" parent="0" />
        <mxCell id="ZFKrtYAjhd_7CmOEIhPP-1" value="&lt;div style=&quot;font-size: 19px;&quot;&gt;&lt;font style=&quot;font-size: 19px;&quot;&gt;сущность пользователя&lt;/font&gt;&lt;/div&gt;&lt;div style=&quot;font-size: 17px;&quot; align=&quot;left&quot;&gt;&lt;font style=&quot;font-size: 17px;&quot;&gt;похорошему у каждого пользователя &lt;br&gt;&lt;/font&gt;&lt;/div&gt;&lt;div style=&quot;font-size: 17px;&quot; align=&quot;left&quot;&gt;&lt;font style=&quot;font-size: 17px;&quot;&gt;должен быть массив ролей&lt;font style=&quot;font-size: 17px;&quot;&gt;&lt;br&gt;&lt;/font&gt;&lt;/font&gt;&lt;/div&gt;&lt;div style=&quot;font-size: 17px;&quot; align=&quot;left&quot;&gt;&lt;font style=&quot;font-size: 17px;&quot;&gt;&lt;font style=&quot;font-size: 17px;&quot;&gt;тоесть он может быть одновременно &lt;br&gt;&lt;/font&gt;&lt;/font&gt;&lt;/div&gt;&lt;div style=&quot;font-size: 17px;&quot; align=&quot;left&quot;&gt;&lt;font style=&quot;font-size: 17px;&quot;&gt;&lt;font style=&quot;font-size: 17px;&quot;&gt;и пользователем и модератором и&lt;/font&gt;&lt;/font&gt;&lt;/div&gt;&lt;div style=&quot;font-size: 17px;&quot; align=&quot;left&quot;&gt;&lt;font style=&quot;font-size: 17px;&quot;&gt;&lt;font style=&quot;font-size: 17px;&quot;&gt;администратором &lt;br&gt;&lt;/font&gt;&lt;/font&gt;&lt;/div&gt;&lt;div style=&quot;font-size: 17px;&quot; align=&quot;left&quot;&gt;&lt;font style=&quot;font-size: 17px;&quot;&gt;&lt;font style=&quot;font-size: 17px;&quot;&gt;сделаем только одну роль&lt;br&gt;&lt;/font&gt;&lt;/font&gt;&lt;/div&gt;" style="text;strokeColor=none;fillColor=none;html=1;fontSize=18;fontStyle=0;verticalAlign=middle;align=center;" parent="1" vertex="1">
          <mxGeometry x="30" y="-20" width="310" height="150" as="geometry" />
        </mxCell>
        <mxCell id="ZFKrtYAjhd_7CmOEIhPP-2" value="User" style="swimlane;fontStyle=0;childLayout=stackLayout;horizontal=1;startSize=26;horizontalStack=0;resizeParent=1;resizeParentMax=0;resizeLast=0;collapsible=1;marginBottom=0;align=center;fontSize=14;" parent="1" vertex="1">
          <mxGeometry x="100" y="160" width="190" height="146" as="geometry" />
        </mxCell>
        <mxCell id="ZFKrtYAjhd_7CmOEIhPP-3" value="id" style="text;strokeColor=none;fillColor=none;spacingLeft=4;spacingRight=4;overflow=hidden;rotatable=0;points=[[0,0.5],[1,0.5]];portConstraint=eastwest;fontSize=12;whiteSpace=wrap;html=1;" parent="ZFKrtYAjhd_7CmOEIhPP-2" vertex="1">
          <mxGeometry y="26" width="190" height="30" as="geometry" />
        </mxCell>
        <mxCell id="ZFKrtYAjhd_7CmOEIhPP-4" value="email" style="text;strokeColor=none;fillColor=none;spacingLeft=4;spacingRight=4;overflow=hidden;rotatable=0;points=[[0,0.5],[1,0.5]];portConstraint=eastwest;fontSize=12;whiteSpace=wrap;html=1;" parent="ZFKrtYAjhd_7CmOEIhPP-2" vertex="1">
          <mxGeometry y="56" width="190" height="30" as="geometry" />
        </mxCell>
        <mxCell id="ZFKrtYAjhd_7CmOEIhPP-5" value="password" style="text;strokeColor=none;fillColor=none;spacingLeft=4;spacingRight=4;overflow=hidden;rotatable=0;points=[[0,0.5],[1,0.5]];portConstraint=eastwest;fontSize=12;whiteSpace=wrap;html=1;" parent="ZFKrtYAjhd_7CmOEIhPP-2" vertex="1">
          <mxGeometry y="86" width="190" height="30" as="geometry" />
        </mxCell>
        <mxCell id="ZFKrtYAjhd_7CmOEIhPP-6" value="role STRING" style="text;strokeColor=none;fillColor=none;spacingLeft=4;spacingRight=4;overflow=hidden;rotatable=0;points=[[0,0.5],[1,0.5]];portConstraint=eastwest;fontSize=12;whiteSpace=wrap;html=1;" parent="ZFKrtYAjhd_7CmOEIhPP-2" vertex="1">
          <mxGeometry y="116" width="190" height="30" as="geometry" />
        </mxCell>
        <mxCell id="ZFKrtYAjhd_7CmOEIhPP-7" value="basket" style="swimlane;fontStyle=0;childLayout=stackLayout;horizontal=1;startSize=26;horizontalStack=0;resizeParent=1;resizeParentMax=0;resizeLast=0;collapsible=1;marginBottom=0;align=center;fontSize=14;" parent="1" vertex="1">
          <mxGeometry x="480" y="160" width="190" height="86" as="geometry" />
        </mxCell>
        <mxCell id="ZFKrtYAjhd_7CmOEIhPP-8" value="id" style="text;strokeColor=none;fillColor=none;spacingLeft=4;spacingRight=4;overflow=hidden;rotatable=0;points=[[0,0.5],[1,0.5]];portConstraint=eastwest;fontSize=12;whiteSpace=wrap;html=1;" parent="ZFKrtYAjhd_7CmOEIhPP-7" vertex="1">
          <mxGeometry y="26" width="190" height="30" as="geometry" />
        </mxCell>
        <mxCell id="ZFKrtYAjhd_7CmOEIhPP-9" value="user_id" style="text;strokeColor=none;fillColor=none;spacingLeft=4;spacingRight=4;overflow=hidden;rotatable=0;points=[[0,0.5],[1,0.5]];portConstraint=eastwest;fontSize=12;whiteSpace=wrap;html=1;" parent="ZFKrtYAjhd_7CmOEIhPP-7" vertex="1">
          <mxGeometry y="56" width="190" height="30" as="geometry" />
        </mxCell>
        <mxCell id="ZFKrtYAjhd_7CmOEIhPP-13" value="&lt;div style=&quot;font-size: 19px;&quot;&gt;&lt;font style=&quot;font-size: 19px;&quot;&gt;корзина пользователя&lt;/font&gt;&lt;/div&gt;&lt;div style=&quot;font-size: 17px;&quot; align=&quot;left&quot;&gt;user_id &lt;font style=&quot;font-size: 17px;&quot;&gt;ссылка внешний ключ &lt;br&gt;&lt;/font&gt;&lt;/div&gt;&lt;div style=&quot;font-size: 17px;&quot; align=&quot;left&quot;&gt;&lt;font style=&quot;font-size: 17px;&quot;&gt;на пользователя что бы понимать&lt;/font&gt;&lt;/div&gt;&lt;div style=&quot;font-size: 17px;&quot; align=&quot;left&quot;&gt;&lt;font style=&quot;font-size: 17px;&quot;&gt;кому эта корзина принадлежит&lt;br&gt;&lt;/font&gt;&lt;/div&gt;" style="text;strokeColor=none;fillColor=none;html=1;fontSize=18;fontStyle=0;verticalAlign=middle;align=center;" parent="1" vertex="1">
          <mxGeometry x="440" y="-20" width="310" height="150" as="geometry" />
        </mxCell>
        <mxCell id="ZFKrtYAjhd_7CmOEIhPP-14" value="" style="edgeStyle=entityRelationEdgeStyle;fontSize=12;html=1;endArrow=ERmandOne;startArrow=ERmandOne;rounded=0;exitX=0.998;exitY=0.279;exitDx=0;exitDy=0;exitPerimeter=0;" parent="1" source="ZFKrtYAjhd_7CmOEIhPP-4" target="ZFKrtYAjhd_7CmOEIhPP-8" edge="1">
          <mxGeometry width="100" height="100" relative="1" as="geometry">
            <mxPoint x="350" y="290" as="sourcePoint" />
            <mxPoint x="450" y="190" as="targetPoint" />
          </mxGeometry>
        </mxCell>
        <mxCell id="ZFKrtYAjhd_7CmOEIhPP-15" value="&lt;div style=&quot;font-size: 19px;&quot;&gt;&lt;font style=&quot;font-size: 19px;&quot;&gt;связь 1 ко многим&lt;br&gt;&lt;/font&gt;&lt;/div&gt;&lt;div style=&quot;font-size: 17px;&quot; align=&quot;left&quot;&gt;1 типу может пренадлежать несколько&lt;/div&gt;&lt;div style=&quot;font-size: 17px;&quot; align=&quot;left&quot;&gt;устройств&lt;/div&gt;&lt;div style=&quot;font-size: 17px;&quot; align=&quot;left&quot;&gt;1 бренду так же может пренадлежать&lt;/div&gt;&lt;div style=&quot;font-size: 17px;&quot; align=&quot;left&quot;&gt;несколько устройств&lt;/div&gt;" style="text;strokeColor=none;fillColor=none;html=1;fontSize=18;fontStyle=0;verticalAlign=middle;align=center;" parent="1" vertex="1">
          <mxGeometry x="895" y="470" width="310" height="150" as="geometry" />
        </mxCell>
        <mxCell id="ZFKrtYAjhd_7CmOEIhPP-16" value="device" style="swimlane;fontStyle=0;childLayout=stackLayout;horizontal=1;startSize=26;horizontalStack=0;resizeParent=1;resizeParentMax=0;resizeLast=0;collapsible=1;marginBottom=0;align=center;fontSize=14;" parent="1" vertex="1">
          <mxGeometry x="1230" y="160" width="190" height="236" as="geometry" />
        </mxCell>
        <mxCell id="ZFKrtYAjhd_7CmOEIhPP-17" value="id" style="text;strokeColor=none;fillColor=none;spacingLeft=4;spacingRight=4;overflow=hidden;rotatable=0;points=[[0,0.5],[1,0.5]];portConstraint=eastwest;fontSize=12;whiteSpace=wrap;html=1;" parent="ZFKrtYAjhd_7CmOEIhPP-16" vertex="1">
          <mxGeometry y="26" width="190" height="30" as="geometry" />
        </mxCell>
        <mxCell id="ZFKrtYAjhd_7CmOEIhPP-18" value="name" style="text;strokeColor=none;fillColor=none;spacingLeft=4;spacingRight=4;overflow=hidden;rotatable=0;points=[[0,0.5],[1,0.5]];portConstraint=eastwest;fontSize=12;whiteSpace=wrap;html=1;" parent="ZFKrtYAjhd_7CmOEIhPP-16" vertex="1">
          <mxGeometry y="56" width="190" height="30" as="geometry" />
        </mxCell>
        <mxCell id="ZFKrtYAjhd_7CmOEIhPP-19" value="price" style="text;strokeColor=none;fillColor=none;spacingLeft=4;spacingRight=4;overflow=hidden;rotatable=0;points=[[0,0.5],[1,0.5]];portConstraint=eastwest;fontSize=12;whiteSpace=wrap;html=1;" parent="ZFKrtYAjhd_7CmOEIhPP-16" vertex="1">
          <mxGeometry y="86" width="190" height="30" as="geometry" />
        </mxCell>
        <mxCell id="ZFKrtYAjhd_7CmOEIhPP-20" value="rating" style="text;strokeColor=none;fillColor=none;spacingLeft=4;spacingRight=4;overflow=hidden;rotatable=0;points=[[0,0.5],[1,0.5]];portConstraint=eastwest;fontSize=12;whiteSpace=wrap;html=1;" parent="ZFKrtYAjhd_7CmOEIhPP-16" vertex="1">
          <mxGeometry y="116" width="190" height="30" as="geometry" />
        </mxCell>
        <mxCell id="ZFKrtYAjhd_7CmOEIhPP-23" value="img" style="text;strokeColor=none;fillColor=none;spacingLeft=4;spacingRight=4;overflow=hidden;rotatable=0;points=[[0,0.5],[1,0.5]];portConstraint=eastwest;fontSize=12;whiteSpace=wrap;html=1;" parent="ZFKrtYAjhd_7CmOEIhPP-16" vertex="1">
          <mxGeometry y="146" width="190" height="30" as="geometry" />
        </mxCell>
        <mxCell id="ZFKrtYAjhd_7CmOEIhPP-24" value="typeId" style="text;strokeColor=none;fillColor=none;spacingLeft=4;spacingRight=4;overflow=hidden;rotatable=0;points=[[0,0.5],[1,0.5]];portConstraint=eastwest;fontSize=12;whiteSpace=wrap;html=1;" parent="ZFKrtYAjhd_7CmOEIhPP-16" vertex="1">
          <mxGeometry y="176" width="190" height="30" as="geometry" />
        </mxCell>
        <mxCell id="ZFKrtYAjhd_7CmOEIhPP-22" value="brandId" style="text;strokeColor=none;fillColor=none;spacingLeft=4;spacingRight=4;overflow=hidden;rotatable=0;points=[[0,0.5],[1,0.5]];portConstraint=eastwest;fontSize=12;whiteSpace=wrap;html=1;" parent="ZFKrtYAjhd_7CmOEIhPP-16" vertex="1">
          <mxGeometry y="206" width="190" height="30" as="geometry" />
        </mxCell>
        <mxCell id="ZFKrtYAjhd_7CmOEIhPP-21" value="&lt;div style=&quot;font-size: 19px;&quot;&gt;&lt;font style=&quot;font-size: 19px;&quot;&gt;сущность устройства дивайса&lt;/font&gt;&lt;/div&gt;&lt;div style=&quot;font-size: 17px;&quot; align=&quot;left&quot;&gt;rating рейтинг от 0 до 5&lt;/div&gt;&lt;div style=&quot;font-size: 17px;&quot; align=&quot;left&quot;&gt;2 внешних ключа ссылки&lt;/div&gt;&lt;div style=&quot;font-size: 17px;&quot; align=&quot;left&quot;&gt;typeId на тип устройтсва (холодилник, &lt;br&gt;&lt;/div&gt;&lt;div style=&quot;font-size: 17px;&quot; align=&quot;left&quot;&gt;телевизор, сартфон и тд.)&lt;br&gt;&lt;/div&gt;&lt;div style=&quot;font-size: 17px;&quot; align=&quot;left&quot;&gt;brandId на бренд устройства &lt;br&gt;&lt;/div&gt;&lt;div style=&quot;font-size: 17px;&quot; align=&quot;left&quot;&gt;(самсунг, ленова и тд.)&lt;br&gt;&lt;/div&gt;" style="text;strokeColor=none;fillColor=none;html=1;fontSize=18;fontStyle=0;verticalAlign=middle;align=center;" parent="1" vertex="1">
          <mxGeometry x="1180" width="310" height="150" as="geometry" />
        </mxCell>
        <mxCell id="ZFKrtYAjhd_7CmOEIhPP-25" value="brand" style="swimlane;fontStyle=0;childLayout=stackLayout;horizontal=1;startSize=26;horizontalStack=0;resizeParent=1;resizeParentMax=0;resizeLast=0;collapsible=1;marginBottom=0;align=center;fontSize=14;" parent="1" vertex="1">
          <mxGeometry x="1260" y="640" width="160" height="86" as="geometry" />
        </mxCell>
        <mxCell id="ZFKrtYAjhd_7CmOEIhPP-26" value="id" style="text;strokeColor=none;fillColor=none;spacingLeft=4;spacingRight=4;overflow=hidden;rotatable=0;points=[[0,0.5],[1,0.5]];portConstraint=eastwest;fontSize=12;whiteSpace=wrap;html=1;" parent="ZFKrtYAjhd_7CmOEIhPP-25" vertex="1">
          <mxGeometry y="26" width="160" height="30" as="geometry" />
        </mxCell>
        <mxCell id="ZFKrtYAjhd_7CmOEIhPP-27" value="name" style="text;strokeColor=none;fillColor=none;spacingLeft=4;spacingRight=4;overflow=hidden;rotatable=0;points=[[0,0.5],[1,0.5]];portConstraint=eastwest;fontSize=12;whiteSpace=wrap;html=1;" parent="ZFKrtYAjhd_7CmOEIhPP-25" vertex="1">
          <mxGeometry y="56" width="160" height="30" as="geometry" />
        </mxCell>
        <mxCell id="ZFKrtYAjhd_7CmOEIhPP-29" value="type" style="swimlane;fontStyle=0;childLayout=stackLayout;horizontal=1;startSize=26;horizontalStack=0;resizeParent=1;resizeParentMax=0;resizeLast=0;collapsible=1;marginBottom=0;align=center;fontSize=14;" parent="1" vertex="1">
          <mxGeometry x="875" y="640" width="160" height="86" as="geometry" />
        </mxCell>
        <mxCell id="ZFKrtYAjhd_7CmOEIhPP-30" value="id" style="text;strokeColor=none;fillColor=none;spacingLeft=4;spacingRight=4;overflow=hidden;rotatable=0;points=[[0,0.5],[1,0.5]];portConstraint=eastwest;fontSize=12;whiteSpace=wrap;html=1;" parent="ZFKrtYAjhd_7CmOEIhPP-29" vertex="1">
          <mxGeometry y="26" width="160" height="30" as="geometry" />
        </mxCell>
        <mxCell id="ZFKrtYAjhd_7CmOEIhPP-31" value="name" style="text;strokeColor=none;fillColor=none;spacingLeft=4;spacingRight=4;overflow=hidden;rotatable=0;points=[[0,0.5],[1,0.5]];portConstraint=eastwest;fontSize=12;whiteSpace=wrap;html=1;" parent="ZFKrtYAjhd_7CmOEIhPP-29" vertex="1">
          <mxGeometry y="56" width="160" height="30" as="geometry" />
        </mxCell>
        <mxCell id="ZFKrtYAjhd_7CmOEIhPP-32" value="device_info" style="swimlane;fontStyle=0;childLayout=stackLayout;horizontal=1;startSize=26;horizontalStack=0;resizeParent=1;resizeParentMax=0;resizeLast=0;collapsible=1;marginBottom=0;align=center;fontSize=14;" parent="1" vertex="1">
          <mxGeometry x="1700" y="170" width="160" height="146" as="geometry" />
        </mxCell>
        <mxCell id="ZFKrtYAjhd_7CmOEIhPP-33" value="id" style="text;strokeColor=none;fillColor=none;spacingLeft=4;spacingRight=4;overflow=hidden;rotatable=0;points=[[0,0.5],[1,0.5]];portConstraint=eastwest;fontSize=12;whiteSpace=wrap;html=1;" parent="ZFKrtYAjhd_7CmOEIhPP-32" vertex="1">
          <mxGeometry y="26" width="160" height="30" as="geometry" />
        </mxCell>
        <mxCell id="ZFKrtYAjhd_7CmOEIhPP-34" value="device_id" style="text;strokeColor=none;fillColor=none;spacingLeft=4;spacingRight=4;overflow=hidden;rotatable=0;points=[[0,0.5],[1,0.5]];portConstraint=eastwest;fontSize=12;whiteSpace=wrap;html=1;" parent="ZFKrtYAjhd_7CmOEIhPP-32" vertex="1">
          <mxGeometry y="56" width="160" height="30" as="geometry" />
        </mxCell>
        <mxCell id="ZFKrtYAjhd_7CmOEIhPP-39" value="title" style="text;strokeColor=none;fillColor=none;spacingLeft=4;spacingRight=4;overflow=hidden;rotatable=0;points=[[0,0.5],[1,0.5]];portConstraint=eastwest;fontSize=12;whiteSpace=wrap;html=1;" parent="ZFKrtYAjhd_7CmOEIhPP-32" vertex="1">
          <mxGeometry y="86" width="160" height="30" as="geometry" />
        </mxCell>
        <mxCell id="ZFKrtYAjhd_7CmOEIhPP-35" value="description" style="text;strokeColor=none;fillColor=none;spacingLeft=4;spacingRight=4;overflow=hidden;rotatable=0;points=[[0,0.5],[1,0.5]];portConstraint=eastwest;fontSize=12;whiteSpace=wrap;html=1;" parent="ZFKrtYAjhd_7CmOEIhPP-32" vertex="1">
          <mxGeometry y="116" width="160" height="30" as="geometry" />
        </mxCell>
        <mxCell id="ZFKrtYAjhd_7CmOEIhPP-40" value="" style="edgeStyle=entityRelationEdgeStyle;fontSize=12;html=1;endArrow=ERoneToMany;rounded=0;exitX=0.5;exitY=0;exitDx=0;exitDy=0;entryX=0;entryY=0.5;entryDx=0;entryDy=0;" parent="1" source="ZFKrtYAjhd_7CmOEIhPP-29" target="ZFKrtYAjhd_7CmOEIhPP-24" edge="1">
          <mxGeometry width="100" height="100" relative="1" as="geometry">
            <mxPoint x="1170" y="380" as="sourcePoint" />
            <mxPoint x="1270" y="280" as="targetPoint" />
          </mxGeometry>
        </mxCell>
        <mxCell id="ZFKrtYAjhd_7CmOEIhPP-41" value="" style="edgeStyle=entityRelationEdgeStyle;fontSize=12;html=1;endArrow=ERoneToMany;rounded=0;exitX=0.436;exitY=-0.028;exitDx=0;exitDy=0;exitPerimeter=0;" parent="1" source="ZFKrtYAjhd_7CmOEIhPP-25" edge="1">
          <mxGeometry width="100" height="100" relative="1" as="geometry">
            <mxPoint x="1170" y="380" as="sourcePoint" />
            <mxPoint x="1230" y="381" as="targetPoint" />
          </mxGeometry>
        </mxCell>
        <mxCell id="ZFKrtYAjhd_7CmOEIhPP-42" value="&lt;div style=&quot;font-size: 19px;&quot;&gt;&lt;font style=&quot;font-size: 19px;&quot;&gt;связь много ко многим&lt;br&gt;&lt;/font&gt;&lt;/div&gt;&lt;div style=&quot;font-size: 17px;&quot; align=&quot;left&quot;&gt;1 бренд может принадлежать к &lt;br&gt;&lt;/div&gt;&lt;div style=&quot;font-size: 17px;&quot; align=&quot;left&quot;&gt;нескольким типам и 1 тип может &lt;/div&gt;&lt;div style=&quot;font-size: 17px;&quot; align=&quot;left&quot;&gt;принадлежать нескольким брендам&lt;/div&gt;&lt;div style=&quot;font-size: 17px;&quot; align=&quot;left&quot;&gt;&lt;br&gt;&lt;/div&gt;&lt;div style=&quot;font-size: 17px;&quot; align=&quot;left&quot;&gt;так как не каждому типу принадлежит&lt;/div&gt;&lt;div style=&quot;font-size: 17px;&quot; align=&quot;left&quot;&gt;бренд, апл стральные машины не &lt;br&gt;&lt;/div&gt;&lt;div style=&quot;font-size: 17px;&quot; align=&quot;left&quot;&gt;производит&lt;br&gt;&lt;/div&gt;" style="text;strokeColor=none;fillColor=none;html=1;fontSize=18;fontStyle=0;verticalAlign=middle;align=center;" parent="1" vertex="1">
          <mxGeometry x="985" y="750" width="310" height="150" as="geometry" />
        </mxCell>
        <mxCell id="ZFKrtYAjhd_7CmOEIhPP-43" value="" style="edgeStyle=entityRelationEdgeStyle;fontSize=12;html=1;endArrow=ERmany;startArrow=ERmany;rounded=0;exitX=1;exitY=0.5;exitDx=0;exitDy=0;entryX=0;entryY=0.5;entryDx=0;entryDy=0;" parent="1" source="ZFKrtYAjhd_7CmOEIhPP-30" target="ZFKrtYAjhd_7CmOEIhPP-26" edge="1">
          <mxGeometry width="100" height="100" relative="1" as="geometry">
            <mxPoint x="1070" y="710" as="sourcePoint" />
            <mxPoint x="1170" y="610" as="targetPoint" />
          </mxGeometry>
        </mxCell>
        <mxCell id="ZFKrtYAjhd_7CmOEIhPP-44" value="&lt;div style=&quot;font-size: 19px;&quot;&gt;&lt;font style=&quot;font-size: 19px;&quot;&gt;связь 1 к 1&lt;br&gt;&lt;/font&gt;&lt;/div&gt;&lt;div style=&quot;font-size: 17px;&quot; align=&quot;left&quot;&gt;1 пользователю может &lt;br&gt;&lt;/div&gt;&lt;div style=&quot;font-size: 17px;&quot; align=&quot;left&quot;&gt;пренадлежать 1 корзина &lt;br&gt;&lt;/div&gt;&lt;div style=&quot;font-size: 17px;&quot; align=&quot;left&quot;&gt;1 корзина может пренадлежать &lt;br&gt;&lt;/div&gt;&lt;div style=&quot;font-size: 17px;&quot; align=&quot;left&quot;&gt;только 1 пользователю&lt;/div&gt;&lt;div style=&quot;font-size: 17px;&quot; align=&quot;left&quot;&gt;&lt;br&gt;&lt;/div&gt;" style="text;strokeColor=none;fillColor=none;html=1;fontSize=18;fontStyle=0;verticalAlign=middle;align=center;" parent="1" vertex="1">
          <mxGeometry x="280" y="246" width="310" height="150" as="geometry" />
        </mxCell>
        <mxCell id="ZFKrtYAjhd_7CmOEIhPP-45" value="&lt;div style=&quot;font-size: 19px;&quot;&gt;&lt;font style=&quot;font-size: 19px;&quot;&gt;индивидуальная информация&lt;br&gt;&lt;/font&gt;&lt;/div&gt;&lt;div style=&quot;font-size: 17px;&quot; align=&quot;left&quot;&gt;у телефона можно описать опертаивную&lt;/div&gt;&lt;div style=&quot;font-size: 17px;&quot; align=&quot;left&quot;&gt;память а у стиральной машины нет&lt;/div&gt;&lt;div style=&quot;font-size: 17px;&quot; align=&quot;left&quot;&gt;device_id ссылка на устройство&lt;br&gt;&lt;/div&gt;" style="text;strokeColor=none;fillColor=none;html=1;fontSize=18;fontStyle=0;verticalAlign=middle;align=center;" parent="1" vertex="1">
          <mxGeometry x="1640" y="20" width="310" height="150" as="geometry" />
        </mxCell>
        <mxCell id="ZFKrtYAjhd_7CmOEIhPP-46" value="&lt;div style=&quot;font-size: 19px;&quot;&gt;&lt;font style=&quot;font-size: 19px;&quot;&gt;связь 1 ко многим&lt;br&gt;&lt;/font&gt;&lt;/div&gt;&lt;div style=&quot;font-size: 17px;&quot; align=&quot;left&quot;&gt;1 дивайс может иметь много &lt;br&gt;&lt;/div&gt;&lt;div style=&quot;font-size: 17px;&quot; align=&quot;left&quot;&gt;характеристик&lt;br&gt;&lt;/div&gt;" style="text;strokeColor=none;fillColor=none;html=1;fontSize=18;fontStyle=0;verticalAlign=middle;align=center;" parent="1" vertex="1">
          <mxGeometry x="1410" y="210" width="310" height="150" as="geometry" />
        </mxCell>
        <mxCell id="ZFKrtYAjhd_7CmOEIhPP-47" value="" style="edgeStyle=entityRelationEdgeStyle;fontSize=12;html=1;endArrow=ERoneToMany;rounded=0;entryX=0;entryY=0.5;entryDx=0;entryDy=0;exitX=1;exitY=0.5;exitDx=0;exitDy=0;" parent="1" source="ZFKrtYAjhd_7CmOEIhPP-18" target="ZFKrtYAjhd_7CmOEIhPP-34" edge="1">
          <mxGeometry width="100" height="100" relative="1" as="geometry">
            <mxPoint x="1340" y="420" as="sourcePoint" />
            <mxPoint x="1440" y="320" as="targetPoint" />
          </mxGeometry>
        </mxCell>
        <mxCell id="ZFKrtYAjhd_7CmOEIhPP-48" value="basket_device" style="swimlane;fontStyle=0;childLayout=stackLayout;horizontal=1;startSize=26;horizontalStack=0;resizeParent=1;resizeParentMax=0;resizeLast=0;collapsible=1;marginBottom=0;align=center;fontSize=14;" parent="1" vertex="1">
          <mxGeometry x="850" y="160" width="160" height="116" as="geometry" />
        </mxCell>
        <mxCell id="ZFKrtYAjhd_7CmOEIhPP-49" value="id" style="text;strokeColor=none;fillColor=none;spacingLeft=4;spacingRight=4;overflow=hidden;rotatable=0;points=[[0,0.5],[1,0.5]];portConstraint=eastwest;fontSize=12;whiteSpace=wrap;html=1;" parent="ZFKrtYAjhd_7CmOEIhPP-48" vertex="1">
          <mxGeometry y="26" width="160" height="30" as="geometry" />
        </mxCell>
        <mxCell id="ZFKrtYAjhd_7CmOEIhPP-50" value="device_id" style="text;strokeColor=none;fillColor=none;spacingLeft=4;spacingRight=4;overflow=hidden;rotatable=0;points=[[0,0.5],[1,0.5]];portConstraint=eastwest;fontSize=12;whiteSpace=wrap;html=1;" parent="ZFKrtYAjhd_7CmOEIhPP-48" vertex="1">
          <mxGeometry y="56" width="160" height="30" as="geometry" />
        </mxCell>
        <mxCell id="ZFKrtYAjhd_7CmOEIhPP-51" value="basket_id" style="text;strokeColor=none;fillColor=none;spacingLeft=4;spacingRight=4;overflow=hidden;rotatable=0;points=[[0,0.5],[1,0.5]];portConstraint=eastwest;fontSize=12;whiteSpace=wrap;html=1;" parent="ZFKrtYAjhd_7CmOEIhPP-48" vertex="1">
          <mxGeometry y="86" width="160" height="30" as="geometry" />
        </mxCell>
        <mxCell id="ZFKrtYAjhd_7CmOEIhPP-52" value="&lt;div style=&quot;font-size: 19px;&quot;&gt;&lt;font style=&quot;font-size: 19px;&quot;&gt;связующее звено между корзиной&lt;/font&gt;&lt;/div&gt;&lt;div style=&quot;font-size: 19px;&quot;&gt;&lt;font style=&quot;font-size: 19px;&quot;&gt;и устройством&lt;br&gt;&lt;/font&gt;&lt;/div&gt;&lt;div style=&quot;font-size: 17px;&quot; align=&quot;left&quot;&gt;у каждого пользователя в корзине&lt;/div&gt;&lt;div style=&quot;font-size: 17px;&quot; align=&quot;left&quot;&gt;могут находиться товары&lt;/div&gt;&lt;div style=&quot;font-size: 17px;&quot; align=&quot;left&quot;&gt;сслка на карзину basket_id и на&lt;/div&gt;&lt;div style=&quot;font-size: 17px;&quot; align=&quot;left&quot;&gt;устройство device_id&lt;/div&gt;" style="text;strokeColor=none;fillColor=none;html=1;fontSize=18;fontStyle=0;verticalAlign=middle;align=center;" parent="1" vertex="1">
          <mxGeometry x="795" y="-10" width="310" height="150" as="geometry" />
        </mxCell>
        <mxCell id="ZFKrtYAjhd_7CmOEIhPP-53" value="&lt;div style=&quot;font-size: 19px;&quot;&gt;&lt;font style=&quot;font-size: 19px;&quot;&gt;связь 1 ко многим&lt;br&gt;&lt;/font&gt;&lt;/div&gt;&lt;div style=&quot;font-size: 17px;&quot; align=&quot;left&quot;&gt;1 карзина может содержать &lt;br&gt;&lt;/div&gt;&lt;div style=&quot;font-size: 17px;&quot; align=&quot;left&quot;&gt;большое количество &lt;br&gt;&lt;/div&gt;&lt;div style=&quot;font-size: 17px;&quot; align=&quot;left&quot;&gt;устройств&lt;br&gt;&lt;/div&gt;" style="text;strokeColor=none;fillColor=none;html=1;fontSize=18;fontStyle=0;verticalAlign=middle;align=center;" parent="1" vertex="1">
          <mxGeometry x="610" y="246" width="310" height="150" as="geometry" />
        </mxCell>
        <mxCell id="ZFKrtYAjhd_7CmOEIhPP-54" value="" style="edgeStyle=entityRelationEdgeStyle;fontSize=12;html=1;endArrow=ERoneToMany;rounded=0;entryX=0;entryY=0.5;entryDx=0;entryDy=0;exitX=1;exitY=0.5;exitDx=0;exitDy=0;" parent="1" source="ZFKrtYAjhd_7CmOEIhPP-8" target="ZFKrtYAjhd_7CmOEIhPP-49" edge="1">
          <mxGeometry width="100" height="100" relative="1" as="geometry">
            <mxPoint x="760" y="390" as="sourcePoint" />
            <mxPoint x="860" y="290" as="targetPoint" />
          </mxGeometry>
        </mxCell>
        <mxCell id="ZFKrtYAjhd_7CmOEIhPP-55" value="&lt;div style=&quot;font-size: 19px;&quot;&gt;&lt;font style=&quot;font-size: 19px;&quot;&gt;связь 1 к 1&lt;br&gt;&lt;/font&gt;&lt;/div&gt;&lt;div style=&quot;font-size: 17px;&quot; align=&quot;left&quot;&gt;устройство каторое находится в&lt;/div&gt;&lt;div style=&quot;font-size: 17px;&quot; align=&quot;left&quot;&gt;корзине ссылается на устройство &lt;br&gt;&lt;/div&gt;&lt;div style=&quot;font-size: 17px;&quot; align=&quot;left&quot;&gt;каторое находится в магазине&lt;br&gt;&lt;/div&gt;&lt;div style=&quot;font-size: 17px;&quot; align=&quot;left&quot;&gt;&lt;br&gt;&lt;/div&gt;" style="text;strokeColor=none;fillColor=none;html=1;fontSize=18;fontStyle=0;verticalAlign=middle;align=center;" parent="1" vertex="1">
          <mxGeometry x="931" y="270" width="310" height="150" as="geometry" />
        </mxCell>
        <mxCell id="ZFKrtYAjhd_7CmOEIhPP-56" value="" style="edgeStyle=entityRelationEdgeStyle;fontSize=12;html=1;endArrow=ERmandOne;startArrow=ERmandOne;rounded=0;entryX=0;entryY=0.5;entryDx=0;entryDy=0;exitX=1;exitY=0.5;exitDx=0;exitDy=0;" parent="1" source="ZFKrtYAjhd_7CmOEIhPP-49" target="ZFKrtYAjhd_7CmOEIhPP-18" edge="1">
          <mxGeometry width="100" height="100" relative="1" as="geometry">
            <mxPoint x="900" y="310" as="sourcePoint" />
            <mxPoint x="1000" y="210" as="targetPoint" />
          </mxGeometry>
        </mxCell>
        <mxCell id="to4-yw562lMGrfsOW1SK-1" value="rating" style="swimlane;fontStyle=0;childLayout=stackLayout;horizontal=1;startSize=26;horizontalStack=0;resizeParent=1;resizeParentMax=0;resizeLast=0;collapsible=1;marginBottom=0;align=center;fontSize=14;" vertex="1" parent="1">
          <mxGeometry x="500" y="400" width="160" height="146" as="geometry" />
        </mxCell>
        <mxCell id="to4-yw562lMGrfsOW1SK-2" value="id" style="text;strokeColor=none;fillColor=none;spacingLeft=4;spacingRight=4;overflow=hidden;rotatable=0;points=[[0,0.5],[1,0.5]];portConstraint=eastwest;fontSize=12;whiteSpace=wrap;html=1;" vertex="1" parent="to4-yw562lMGrfsOW1SK-1">
          <mxGeometry y="26" width="160" height="30" as="geometry" />
        </mxCell>
        <mxCell id="to4-yw562lMGrfsOW1SK-3" value="user_id" style="text;strokeColor=none;fillColor=none;spacingLeft=4;spacingRight=4;overflow=hidden;rotatable=0;points=[[0,0.5],[1,0.5]];portConstraint=eastwest;fontSize=12;whiteSpace=wrap;html=1;" vertex="1" parent="to4-yw562lMGrfsOW1SK-1">
          <mxGeometry y="56" width="160" height="30" as="geometry" />
        </mxCell>
        <mxCell id="to4-yw562lMGrfsOW1SK-4" value="device_id" style="text;strokeColor=none;fillColor=none;spacingLeft=4;spacingRight=4;overflow=hidden;rotatable=0;points=[[0,0.5],[1,0.5]];portConstraint=eastwest;fontSize=12;whiteSpace=wrap;html=1;" vertex="1" parent="to4-yw562lMGrfsOW1SK-1">
          <mxGeometry y="86" width="160" height="30" as="geometry" />
        </mxCell>
        <mxCell id="to4-yw562lMGrfsOW1SK-7" value="rate" style="text;strokeColor=none;fillColor=none;spacingLeft=4;spacingRight=4;overflow=hidden;rotatable=0;points=[[0,0.5],[1,0.5]];portConstraint=eastwest;fontSize=12;whiteSpace=wrap;html=1;" vertex="1" parent="to4-yw562lMGrfsOW1SK-1">
          <mxGeometry y="116" width="160" height="30" as="geometry" />
        </mxCell>
        <mxCell id="to4-yw562lMGrfsOW1SK-5" value="&lt;div style=&quot;font-size: 19px;&quot;&gt;&lt;font style=&quot;font-size: 19px;&quot;&gt;рейтинг устройства&lt;br&gt;&lt;/font&gt;&lt;/div&gt;&lt;div style=&quot;font-size: 17px;&quot; align=&quot;left&quot;&gt;надо как то высчитывать рейтинг конкретного устройства, &lt;br&gt;&lt;/div&gt;&lt;div style=&quot;font-size: 17px;&quot; align=&quot;left&quot;&gt;1 пользователь может теоретически 10 раз поставить 1 &lt;br&gt;&lt;/div&gt;&lt;div style=&quot;font-size: 17px;&quot; align=&quot;left&quot;&gt;и ту же оценку и мы никак не узнаем ставил этот &lt;br&gt;&lt;/div&gt;&lt;div style=&quot;font-size: 17px;&quot; align=&quot;left&quot;&gt;пользователь оценку или нет. здесь будем хранить id &lt;br&gt;&lt;/div&gt;&lt;div style=&quot;font-size: 17px;&quot; align=&quot;left&quot;&gt;пользователя и устройства и оценку каторую он поставил&lt;/div&gt;&lt;div style=&quot;font-size: 17px;&quot; align=&quot;left&quot;&gt;и каждый раз когда пользователь заходит&amp;nbsp; на страницк &lt;br&gt;&lt;/div&gt;&lt;div style=&quot;font-size: 17px;&quot; align=&quot;left&quot;&gt;товара будем проверять&amp;nbsp; ставил он оценку или нет есть &lt;br&gt;&lt;/div&gt;&lt;div style=&quot;font-size: 17px;&quot; align=&quot;left&quot;&gt;ли он в этой&amp;nbsp; таблице если есть значи запрещаем ему&lt;/div&gt;&lt;div style=&quot;font-size: 17px;&quot; align=&quot;left&quot;&gt;ставить оценку еще раз&lt;br&gt;&lt;/div&gt;" style="text;strokeColor=none;fillColor=none;html=1;fontSize=18;fontStyle=0;verticalAlign=middle;align=center;" vertex="1" parent="1">
          <mxGeometry x="440" y="585" width="310" height="150" as="geometry" />
        </mxCell>
        <mxCell id="to4-yw562lMGrfsOW1SK-8" value="" style="edgeStyle=entityRelationEdgeStyle;fontSize=12;html=1;endArrow=ERoneToMany;rounded=0;exitX=0.534;exitY=0.98;exitDx=0;exitDy=0;exitPerimeter=0;entryX=-0.013;entryY=0.878;entryDx=0;entryDy=0;entryPerimeter=0;" edge="1" parent="1" source="ZFKrtYAjhd_7CmOEIhPP-6" target="to4-yw562lMGrfsOW1SK-2">
          <mxGeometry width="100" height="100" relative="1" as="geometry">
            <mxPoint x="190" y="350" as="sourcePoint" />
            <mxPoint x="520" y="320" as="targetPoint" />
          </mxGeometry>
        </mxCell>
        <mxCell id="to4-yw562lMGrfsOW1SK-9" value="" style="edgeStyle=entityRelationEdgeStyle;fontSize=12;html=1;endArrow=ERoneToMany;rounded=0;entryX=0.998;entryY=0.226;entryDx=0;entryDy=0;entryPerimeter=0;exitX=0;exitY=0.5;exitDx=0;exitDy=0;" edge="1" parent="1" source="ZFKrtYAjhd_7CmOEIhPP-19" target="to4-yw562lMGrfsOW1SK-3">
          <mxGeometry width="100" height="100" relative="1" as="geometry">
            <mxPoint x="900" y="460" as="sourcePoint" />
            <mxPoint x="780" y="410" as="targetPoint" />
          </mxGeometry>
        </mxCell>
      </root>
    </mxGraphModel>
  </diagram>
</mxfile>
